G04 #@! TF.GenerationSoftware,KiCad,Pcbnew,5.0.2+dfsg1-1*
G04 #@! TF.CreationDate,2021-07-05T06:51:35+02:00*
G04 #@! TF.ProjectId,billjapacontrollerv2,62696c6c-6a61-4706-9163-6f6e74726f6c,rev?*
G04 #@! TF.SameCoordinates,Original*
G04 #@! TF.FileFunction,Legend,Top*
G04 #@! TF.FilePolarity,Positive*
%FSLAX46Y46*%
G04 Gerber Fmt 4.6, Leading zero omitted, Abs format (unit mm)*
G04 Created by KiCad (PCBNEW 5.0.2+dfsg1-1) date lun. 05 juil. 2021 06:51:35 CEST*
%MOMM*%
%LPD*%
G01*
G04 APERTURE LIST*
%ADD10C,0.120000*%
G04 APERTURE END LIST*
D10*
G04 #@! TO.C,*
X55880000Y-60960000D02*
X55880000Y-71120000D01*
X57150000Y-60960000D02*
X49530000Y-60960000D01*
X49530000Y-60960000D02*
X49530000Y-71120000D01*
X49530000Y-71120000D02*
X57150000Y-71120000D01*
X57150000Y-71120000D02*
X57150000Y-60960000D01*
X48260000Y-22860000D02*
X38100000Y-22860000D01*
X48260000Y-24130000D02*
X48260000Y-16510000D01*
X48260000Y-16510000D02*
X38100000Y-16510000D01*
X38100000Y-16510000D02*
X38100000Y-24130000D01*
X38100000Y-24130000D02*
X48260000Y-24130000D01*
X55880000Y-71120000D02*
X55880000Y-81280000D01*
X57150000Y-71120000D02*
X49530000Y-71120000D01*
X49530000Y-71120000D02*
X49530000Y-81280000D01*
X49530000Y-81280000D02*
X57150000Y-81280000D01*
X57150000Y-81280000D02*
X57150000Y-71120000D01*
X55880000Y-50800000D02*
X55880000Y-60960000D01*
X57150000Y-50800000D02*
X49530000Y-50800000D01*
X49530000Y-50800000D02*
X49530000Y-60960000D01*
X49530000Y-60960000D02*
X57150000Y-60960000D01*
X57150000Y-60960000D02*
X57150000Y-50800000D01*
X55880000Y-40640000D02*
X55880000Y-50800000D01*
X57150000Y-40640000D02*
X49530000Y-40640000D01*
X49530000Y-40640000D02*
X49530000Y-50800000D01*
X49530000Y-50800000D02*
X57150000Y-50800000D01*
X57150000Y-50800000D02*
X57150000Y-40640000D01*
X30480000Y-81280000D02*
X30480000Y-71120000D01*
X29210000Y-81280000D02*
X36830000Y-81280000D01*
X36830000Y-81280000D02*
X36830000Y-71120000D01*
X36830000Y-71120000D02*
X29210000Y-71120000D01*
X29210000Y-71120000D02*
X29210000Y-81280000D01*
X30480000Y-71120000D02*
X30480000Y-60960000D01*
X29210000Y-71120000D02*
X36830000Y-71120000D01*
X36830000Y-71120000D02*
X36830000Y-60960000D01*
X36830000Y-60960000D02*
X29210000Y-60960000D01*
X29210000Y-60960000D02*
X29210000Y-71120000D01*
X30480000Y-60960000D02*
X30480000Y-50800000D01*
X29210000Y-60960000D02*
X36830000Y-60960000D01*
X36830000Y-60960000D02*
X36830000Y-50800000D01*
X36830000Y-50800000D02*
X29210000Y-50800000D01*
X29210000Y-50800000D02*
X29210000Y-60960000D01*
X30480000Y-50800000D02*
X30480000Y-40640000D01*
X29210000Y-50800000D02*
X36830000Y-50800000D01*
X36830000Y-50800000D02*
X36830000Y-40640000D01*
X36830000Y-40640000D02*
X29210000Y-40640000D01*
X29210000Y-40640000D02*
X29210000Y-50800000D01*
X55880000Y-30480000D02*
X55880000Y-40640000D01*
X57150000Y-30480000D02*
X49530000Y-30480000D01*
X49530000Y-30480000D02*
X49530000Y-40640000D01*
X49530000Y-40640000D02*
X57150000Y-40640000D01*
X57150000Y-40640000D02*
X57150000Y-30480000D01*
X38295000Y-76210000D02*
X48065000Y-76210000D01*
X38295000Y-81280000D02*
X48065000Y-81280000D01*
X38295000Y-76210000D02*
X38295000Y-81280000D01*
X48065000Y-76210000D02*
X48065000Y-81280000D01*
X38295000Y-71130000D02*
X48065000Y-71130000D01*
X38295000Y-76200000D02*
X48065000Y-76200000D01*
X38295000Y-71130000D02*
X38295000Y-76200000D01*
X48065000Y-71130000D02*
X48065000Y-76200000D01*
X38295000Y-66050000D02*
X48065000Y-66050000D01*
X38295000Y-71120000D02*
X48065000Y-71120000D01*
X38295000Y-66050000D02*
X38295000Y-71120000D01*
X48065000Y-66050000D02*
X48065000Y-71120000D01*
X38295000Y-60970000D02*
X48065000Y-60970000D01*
X38295000Y-66040000D02*
X48065000Y-66040000D01*
X38295000Y-60970000D02*
X38295000Y-66040000D01*
X48065000Y-60970000D02*
X48065000Y-66040000D01*
X38295000Y-55890000D02*
X48065000Y-55890000D01*
X38295000Y-60960000D02*
X48065000Y-60960000D01*
X38295000Y-55890000D02*
X38295000Y-60960000D01*
X48065000Y-55890000D02*
X48065000Y-60960000D01*
X38295000Y-50810000D02*
X48065000Y-50810000D01*
X38295000Y-55880000D02*
X48065000Y-55880000D01*
X38295000Y-50810000D02*
X38295000Y-55880000D01*
X48065000Y-50810000D02*
X48065000Y-55880000D01*
X38295000Y-45730000D02*
X48065000Y-45730000D01*
X38295000Y-50800000D02*
X48065000Y-50800000D01*
X38295000Y-45730000D02*
X38295000Y-50800000D01*
X48065000Y-45730000D02*
X48065000Y-50800000D01*
X38295000Y-40650000D02*
X48065000Y-40650000D01*
X38295000Y-45720000D02*
X48065000Y-45720000D01*
X38295000Y-40650000D02*
X38295000Y-45720000D01*
X48065000Y-40650000D02*
X48065000Y-45720000D01*
X38295000Y-35570000D02*
X48065000Y-35570000D01*
X38295000Y-40640000D02*
X48065000Y-40640000D01*
X38295000Y-35570000D02*
X38295000Y-40640000D01*
X48065000Y-35570000D02*
X48065000Y-40640000D01*
X48065000Y-30490000D02*
X48065000Y-35560000D01*
X38295000Y-30490000D02*
X38295000Y-35560000D01*
X38295000Y-35560000D02*
X48065000Y-35560000D01*
X38295000Y-30490000D02*
X48065000Y-30490000D01*
X29210000Y-30480000D02*
X29210000Y-40640000D01*
X36830000Y-30480000D02*
X29210000Y-30480000D01*
X36830000Y-40640000D02*
X36830000Y-30480000D01*
X29210000Y-40640000D02*
X36830000Y-40640000D01*
X30480000Y-40640000D02*
X30480000Y-30480000D01*
G04 #@! TD*
M02*
