M48
;DRILL file {KiCad 5.0.2+dfsg1-1} date lun. 05 juil. 2021 06:51:30 CEST
;FORMAT={-:-/ absolute / inch / decimal}
FMAT,2
INCH,TZ
T1C0.0315
T2C0.0598
%
G90
G05
T1
X1.7Y-2.9
X1.6Y-1.5
X1.7Y-1.5
X1.8Y-1.5
X1.6Y-1.9
X1.7Y-1.9
X1.8Y-1.9
X1.6Y-3.1
X1.7Y-3.1
X1.8Y-3.1
X1.6Y-1.3
X1.7Y-1.3
X1.8Y-1.3
X1.6Y-2.3
X1.7Y-2.3
X1.8Y-2.3
X1.6Y-2.1
X1.7Y-2.1
X1.8Y-2.1
X1.6Y-2.7
X1.7Y-2.7
X1.8Y-2.7
X1.6Y-2.5
X1.7Y-2.5
X1.8Y-2.5
X1.6Y-2.9
X1.8Y-2.9
X1.6Y-1.7
X1.7Y-1.7
X1.8Y-1.7
T2
X1.3Y-2.5
X1.3Y-2.7
X1.3Y-1.3
X1.3Y-1.5
X2.1Y-2.5
X2.1Y-2.7
X2.1Y-1.3
X2.1Y-1.5
X2.1Y-2.1
X2.1Y-2.3
X1.3Y-2.9
X1.3Y-3.1
X1.6Y-0.8
X1.8Y-0.8
X2.1Y-2.9
X2.1Y-3.1
X1.3Y-2.1
X1.3Y-2.3
X2.1Y-1.7
X2.1Y-1.9
X1.3Y-1.7
X1.3Y-1.9
T0
M30
